<svg width="147" height="25" viewBox="0 0 147 25" fill="none" xmlns="http://www.w3.org/2000/svg">
<path d="M14.6562 20.3438V24H3.20312V20.3438H14.6562ZM4.71875 1.25V24H0.03125V1.25H4.71875ZM60.125 21.8281C60.125 21.1615 60.3542 20.6042 60.8125 20.1562C61.2812 19.7083 61.901 19.4844 62.6719 19.4844C63.4427 19.4844 64.0573 19.7083 64.5156 20.1562C64.9844 20.6042 65.2188 21.1615 65.2188 21.8281C65.2188 22.4948 64.9844 23.0521 64.5156 23.5C64.0573 23.9479 63.4427 24.1719 62.6719 24.1719C61.901 24.1719 61.2812 23.9479 60.8125 23.5C60.3542 23.0521 60.125 22.4948 60.125 21.8281ZM87.9844 1.25V24H83.2969L74.1562 8.75V24H69.4688V1.25H74.1562L83.3125 16.5156V1.25H87.9844Z" fill="#61DCFB"/>
<path d="M21.8125 7.09375V24H17.2969V7.09375H21.8125ZM17.0156 2.6875C17.0156 2.03125 17.2448 1.48958 17.7031 1.0625C18.1615 0.635417 18.776 0.421875 19.5469 0.421875C20.3073 0.421875 20.9167 0.635417 21.375 1.0625C21.8438 1.48958 22.0781 2.03125 22.0781 2.6875C22.0781 3.34375 21.8438 3.88542 21.375 4.3125C20.9167 4.73958 20.3073 4.95312 19.5469 4.95312C18.776 4.95312 18.1615 4.73958 17.7031 4.3125C17.2448 3.88542 17.0156 3.34375 17.0156 2.6875ZM29.9375 10.7031V24H25.4375V7.09375H29.6562L29.9375 10.7031ZM29.2812 14.9531H28.0625C28.0625 13.7031 28.224 12.5781 28.5469 11.5781C28.8698 10.5677 29.3229 9.70833 29.9062 9C30.4896 8.28125 31.1823 7.73438 31.9844 7.35938C32.7969 6.97396 33.7031 6.78125 34.7031 6.78125C35.4948 6.78125 36.2188 6.89583 36.875 7.125C37.5312 7.35417 38.0938 7.71875 38.5625 8.21875C39.0417 8.71875 39.4062 9.38021 39.6562 10.2031C39.9167 11.026 40.0469 12.0312 40.0469 13.2188V24H35.5156V13.2031C35.5156 12.4531 35.4115 11.8698 35.2031 11.4531C34.9948 11.0365 34.6875 10.7448 34.2812 10.5781C33.8854 10.401 33.3958 10.3125 32.8125 10.3125C32.2083 10.3125 31.6823 10.4323 31.2344 10.6719C30.7969 10.9115 30.4323 11.2448 30.1406 11.6719C29.8594 12.0885 29.6458 12.5781 29.5 13.1406C29.3542 13.7031 29.2812 14.3073 29.2812 14.9531ZM52.6094 19.3281C52.6094 19.0052 52.5156 18.7135 52.3281 18.4531C52.1406 18.1927 51.7917 17.9531 51.2812 17.7344C50.7812 17.5052 50.0573 17.2969 49.1094 17.1094C48.2552 16.9219 47.4583 16.6875 46.7188 16.4062C45.9896 16.1146 45.3542 15.7656 44.8125 15.3594C44.2812 14.9531 43.8646 14.474 43.5625 13.9219C43.2604 13.3594 43.1094 12.7188 43.1094 12C43.1094 11.2917 43.2604 10.625 43.5625 10C43.875 9.375 44.3177 8.82292 44.8906 8.34375C45.474 7.85417 46.1823 7.47396 47.0156 7.20312C47.8594 6.92188 48.8073 6.78125 49.8594 6.78125C51.3281 6.78125 52.5885 7.01562 53.6406 7.48438C54.7031 7.95312 55.5156 8.59896 56.0781 9.42188C56.651 10.2344 56.9375 11.1615 56.9375 12.2031H52.4375C52.4375 11.7656 52.3438 11.375 52.1562 11.0312C51.9792 10.6771 51.6979 10.401 51.3125 10.2031C50.9375 9.99479 50.4479 9.89062 49.8438 9.89062C49.3438 9.89062 48.9115 9.97917 48.5469 10.1562C48.1823 10.3229 47.901 10.5521 47.7031 10.8438C47.5156 11.125 47.4219 11.4375 47.4219 11.7812C47.4219 12.0417 47.474 12.276 47.5781 12.4844C47.6927 12.6823 47.875 12.8646 48.125 13.0312C48.375 13.1979 48.6979 13.3542 49.0938 13.5C49.5 13.6354 50 13.7604 50.5938 13.875C51.8125 14.125 52.901 14.4531 53.8594 14.8594C54.8177 15.2552 55.5781 15.7969 56.1406 16.4844C56.7031 17.1615 56.9844 18.0521 56.9844 19.1562C56.9844 19.9062 56.8177 20.5938 56.4844 21.2188C56.151 21.8438 55.6719 22.3906 55.0469 22.8594C54.4219 23.3177 53.6719 23.6771 52.7969 23.9375C51.9323 24.1875 50.9583 24.3125 49.875 24.3125C48.3021 24.3125 46.9688 24.0312 45.875 23.4688C44.7917 22.9062 43.9688 22.1927 43.4062 21.3281C42.8542 20.4531 42.5781 19.5573 42.5781 18.6406H46.8438C46.8646 19.2552 47.0208 19.75 47.3125 20.125C47.6146 20.5 47.9948 20.7708 48.4531 20.9375C48.9219 21.1042 49.4271 21.1875 49.9688 21.1875C50.5521 21.1875 51.0365 21.1094 51.4219 20.9531C51.8073 20.7865 52.099 20.5677 52.2969 20.2969C52.5052 20.0156 52.6094 19.6927 52.6094 19.3281ZM99.5625 24.3125C98.25 24.3125 97.0729 24.1042 96.0312 23.6875C94.9896 23.2604 94.1042 22.6719 93.375 21.9219C92.6562 21.1719 92.1042 20.3021 91.7188 19.3125C91.3333 18.3125 91.1406 17.25 91.1406 16.125V15.5C91.1406 14.2188 91.3229 13.0469 91.6875 11.9844C92.0521 10.9219 92.5729 10 93.25 9.21875C93.9375 8.4375 94.7708 7.83854 95.75 7.42188C96.7292 6.99479 97.8333 6.78125 99.0625 6.78125C100.26 6.78125 101.323 6.97917 102.25 7.375C103.177 7.77083 103.953 8.33333 104.578 9.0625C105.214 9.79167 105.693 10.6667 106.016 11.6875C106.339 12.6979 106.5 13.8229 106.5 15.0625V16.9375H93.0625V13.9375H102.078V13.5938C102.078 12.9688 101.964 12.4115 101.734 11.9219C101.516 11.4219 101.182 11.026 100.734 10.7344C100.286 10.4427 99.7135 10.2969 99.0156 10.2969C98.4219 10.2969 97.9115 10.4271 97.4844 10.6875C97.0573 10.9479 96.7083 11.3125 96.4375 11.7812C96.1771 12.25 95.9792 12.8021 95.8438 13.4375C95.7188 14.0625 95.6562 14.75 95.6562 15.5V16.125C95.6562 16.8021 95.75 17.4271 95.9375 18C96.1354 18.5729 96.4115 19.0677 96.7656 19.4844C97.1302 19.901 97.5677 20.224 98.0781 20.4531C98.599 20.6823 99.1875 20.7969 99.8438 20.7969C100.656 20.7969 101.411 20.6406 102.109 20.3281C102.818 20.0052 103.427 19.5208 103.938 18.875L106.125 21.25C105.771 21.7604 105.286 22.25 104.672 22.7188C104.068 23.1875 103.339 23.5729 102.484 23.875C101.63 24.1667 100.656 24.3125 99.5625 24.3125ZM113.891 19.625L117.406 7.09375H120.266L119.344 12.0156L115.828 24H113.438L113.891 19.625ZM112.109 7.09375L114.625 19.6094L114.859 24H112.047L107.766 7.09375H112.109ZM123.484 19.4062L125.938 7.09375H130.297L126.016 24H123.219L123.484 19.4062ZM120.656 7.09375L124.156 19.5312L124.641 24H122.234L118.719 12.0312L117.828 7.09375H120.656ZM141.703 19.3281C141.703 19.0052 141.609 18.7135 141.422 18.4531C141.234 18.1927 140.885 17.9531 140.375 17.7344C139.875 17.5052 139.151 17.2969 138.203 17.1094C137.349 16.9219 136.552 16.6875 135.812 16.4062C135.083 16.1146 134.448 15.7656 133.906 15.3594C133.375 14.9531 132.958 14.474 132.656 13.9219C132.354 13.3594 132.203 12.7188 132.203 12C132.203 11.2917 132.354 10.625 132.656 10C132.969 9.375 133.411 8.82292 133.984 8.34375C134.568 7.85417 135.276 7.47396 136.109 7.20312C136.953 6.92188 137.901 6.78125 138.953 6.78125C140.422 6.78125 141.682 7.01562 142.734 7.48438C143.797 7.95312 144.609 8.59896 145.172 9.42188C145.745 10.2344 146.031 11.1615 146.031 12.2031H141.531C141.531 11.7656 141.438 11.375 141.25 11.0312C141.073 10.6771 140.792 10.401 140.406 10.2031C140.031 9.99479 139.542 9.89062 138.938 9.89062C138.438 9.89062 138.005 9.97917 137.641 10.1562C137.276 10.3229 136.995 10.5521 136.797 10.8438C136.609 11.125 136.516 11.4375 136.516 11.7812C136.516 12.0417 136.568 12.276 136.672 12.4844C136.786 12.6823 136.969 12.8646 137.219 13.0312C137.469 13.1979 137.792 13.3542 138.188 13.5C138.594 13.6354 139.094 13.7604 139.688 13.875C140.906 14.125 141.995 14.4531 142.953 14.8594C143.911 15.2552 144.672 15.7969 145.234 16.4844C145.797 17.1615 146.078 18.0521 146.078 19.1562C146.078 19.9062 145.911 20.5938 145.578 21.2188C145.245 21.8438 144.766 22.3906 144.141 22.8594C143.516 23.3177 142.766 23.6771 141.891 23.9375C141.026 24.1875 140.052 24.3125 138.969 24.3125C137.396 24.3125 136.062 24.0312 134.969 23.4688C133.885 22.9062 133.062 22.1927 132.5 21.3281C131.948 20.4531 131.672 19.5573 131.672 18.6406H135.938C135.958 19.2552 136.115 19.75 136.406 20.125C136.708 20.5 137.089 20.7708 137.547 20.9375C138.016 21.1042 138.521 21.1875 139.062 21.1875C139.646 21.1875 140.13 21.1094 140.516 20.9531C140.901 20.7865 141.193 20.5677 141.391 20.2969C141.599 20.0156 141.703 19.6927 141.703 19.3281Z" fill="#E1E1E6"/>
</svg>
